<svg width="122.88" height="122.88" xmlns="http://www.w3.org/2000/svg" xml:space="preserve" version="1.1" fill="#000000">

 <g>
  <title>Layer 1</title>
  <path id="svg_2" clip-rule="evenodd" fill-rule="evenodd" d="m43.58,106.345l-11.68,-11.67l-8.04,0c-2.81,0 -5.11,-2.3 -5.11,-5.11l0,-8.7l-4.87,0l0,10.18c0,2.17 -1.78,3.95 -3.95,3.95l-5.98,0c-2.17,0 -3.95,-1.78 -3.95,-3.95l0,-34.5c0,-2.17 1.78,-3.95 3.95,-3.95l5.98,0c2.17,0 3.95,1.78 3.95,3.95l0,10.18l4.87,0l0,-9.36c0,-2.81 2.3,-5.11 5.11,-5.11l8.54,0l12.07,-12.83c1.4,-1.22 3.26,-1.65 5.43,-1.56l49.73,0c1.72,0.19 3.03,0.85 3.83,2.09c0.8,1.22 0.67,1.91 0.67,3.28l0,23.49l4.87,0l0,-10.18c0,-2.17 1.78,-3.95 3.95,-3.95l5.98,0c2.17,0 3.95,1.78 3.95,3.95l0,34.5c0,2.17 -1.78,3.95 -3.95,3.95l-5.98,0c-2.17,0 -3.95,-1.78 -3.95,-3.95l0,-10.18l-4.87,0l0,0.92c0,2.73 0.08,4.38 -1.66,6.64c-0.33,0.43 -0.7,0.84 -1.11,1.22l-17.83,17.46c-0.89,0.99 -2.24,1.53 -4.02,1.63l-30.4,0c-2.27,-0.1 -4.12,-0.88 -5.53,-2.39l0,0zm20.13,-30.42l-12.64,-1.19l10.48,-22.96l14.33,0l-8.13,13.17l14.62,1.62l-26.84,32.22l8.18,-22.86l0,0zm-11.73,-61.78l34.5,0c2.17,0 3.95,1.78 3.95,3.95l0,5.98c0,2.17 -1.78,3.95 -3.95,3.95l-10.18,0l0,5.03l-14.14,0l0,-5.03l-10.18,0c-2.17,0 -3.95,-1.78 -3.95,-3.95l0,-5.98c0,-2.17 1.78,-3.95 3.95,-3.95l0,0z" class="st0"/>
  <rect id="svg_3" height="54.6478" width="37.46473" y="47.74293" x="46.11609" fill="#000000"/>
  <path stroke-dasharray="—" d="m34.2701,65.40148c-0.49717,0 -0.56605,-0.07187 -1.49152,0.0931c-1.12229,0.20005 -1.43212,0.50421 -2.23727,0.65169c-0.70616,0.12935 -1.52905,0.31976 -1.98869,0.55859c-0.72675,0.37763 -1.58725,0.59322 -2.23727,0.93098c-0.61667,0.32042 -1.22245,0.40841 -1.49151,0.65169c-0.09513,0.08601 -0.11405,0.15766 -0.24858,0.27929c-0.09513,0.08601 -0.12088,0.26288 -0.24859,0.46549c-0.17134,0.27182 -0.49717,0.37239 -0.49717,0.55859c0,0.0931 0.29034,0.36498 0.74576,0.74478c0.5484,0.45735 1.17989,0.75979 1.98869,1.21027c0.69354,0.38629 1.54688,0.71909 2.48586,1.02408c0.79675,0.25879 1.54414,0.43887 2.23727,0.65168c1.08748,0.33388 2.1608,0.68994 2.98303,1.11718c0.97504,0.50664 1.18313,1.19848 2.48586,1.76886c1.03464,0.45301 2.18163,0.88142 2.98303,1.39647c0.674,0.43317 0.74576,0.83788 0.74576,1.30337c0,0.37239 0.11928,0.58872 -0.24859,0.74478c-0.59317,0.25164 -1.70736,0.49236 -2.73444,0.65169c-0.72626,0.11266 -1.7401,0.1862 -1.98869,0.1862c-1.24293,0 -2.24066,0.03071 -3.23161,0c-1.50694,-0.04671 -2.75229,-0.34365 -3.97737,-0.46549c-0.75976,-0.07556 -1.51044,-0.24367 -1.7401,-0.27929c-0.3248,-0.05038 -0.74897,-0.07819 -0.99434,-0.0931c-0.77595,-0.04716 -1.24293,-0.37239 -1.7401,-0.37239l-0.24858,-0.0931" id="svg_5" fill-opacity="0" stroke-width="4" stroke="#ffffff" fill="none"/>
  <path d="m47.80622,58.67249c0.28169,0.28169 0.65071,0.37675 1.40845,0.84507c0.33887,0.20944 0.56338,0.56338 0.56338,0.84507c0,0.56338 -0.28169,1.40845 -0.28169,2.8169c0,1.40845 -0.28169,2.53521 -0.28169,3.66196c0,1.69014 -0.37835,3.62705 -0.84507,5.07041c-0.35734,1.1051 -0.24723,1.99043 -0.56338,2.53521c-0.50978,0.87844 -0.70316,1.66416 -0.84507,2.8169c-0.10325,0.83873 -0.06861,1.99216 -0.28169,3.09858c-0.28687,1.48958 -0.73404,2.25901 -0.84507,3.38028c-0.14153,1.42935 -1.27921,2.73054 -1.12676,3.09859c0.1078,0.26025 0.54483,-0.04065 1.12676,-0.28169c0.82298,-0.34089 2.99578,-1.73024 5.3521,-3.66196c2.46461,-2.02049 3.68885,-4.21896 3.94366,-5.3521c0.31511,-1.40134 0.28169,-3.09859 0.28169,-3.66196c0,-0.56338 -0.28169,-0.56338 -0.56338,-0.56338c0,0 0.08661,0.33408 -0.28169,0.84507c-0.46586,0.64635 -0.40009,2.29771 0.28169,3.94365c0.72313,1.7458 2.09246,3.49953 3.38028,5.07042c1.26281,1.54037 2.53521,2.81689 3.66196,3.38027c0.56339,0.28169 0.86652,0.3895 1.12676,0.28169c0.36804,-0.15245 0.51373,-0.41866 1.12675,-0.56338c0.27415,-0.06472 0.28169,-0.56339 0,-0.56339c-0.28168,0 -0.33503,0.02365 -0.56338,-0.56338c-0.74344,-1.91122 -1.02692,-4.17181 -1.69014,-6.76055c-0.78162,-3.05086 -1.17611,-6.77015 -1.40845,-9.57745c-0.14133,-1.70761 -0.28169,-2.53521 -0.28169,-3.66197l0,-1.12675l0.28169,-0.28169l0,-0.56338" id="svg_6" fill-opacity="0" stroke-dasharray="—" stroke-width="4" stroke="#ffffff" fill="none"/>
  <path d="m68.65126,82.55698c0.38027,0 0.46951,-0.05272 0.76055,-0.69255c0.4116,-0.90486 0.94529,-2.7335 1.52107,-5.54041c0.56294,-2.7443 0.64971,-5.5549 1.14081,-8.31062c0.3106,-1.74288 1.32951,-4.46966 1.52108,-5.88669c0.04646,-0.34368 0.40921,-0.47879 0.76054,-0.34628c1.49053,0.56221 2.75727,3.43513 3.80269,6.57924c1.25643,3.77874 2.2133,7.53736 3.04215,10.73455c0.61779,2.38304 1.32572,3.40172 1.52108,4.1553c0.08737,0.33701 0.06091,0.69703 0,1.03883c-0.19263,1.08088 -0.76054,2.07766 -0.76054,2.77021l0,0.34628" id="svg_7" fill-opacity="0" stroke-dasharray="—" stroke-width="4" stroke="#ffffff" fill="none"/>
  <path d="m68.98777,74.16542c-0.41403,0 0,0 0.41402,0c1.65612,0 3.27404,0.42148 4.96834,0.56339c0.82185,0.06883 1.24208,0 1.6561,0c0.41403,0 0.82806,0 1.24208,0l0.41403,0l0.41402,0l0.41403,-0.28169" id="svg_8" fill-opacity="0" stroke-dasharray="—" stroke-width="4" stroke="#ffffff" fill="none"/>
  <path d="m93.72165,60.36263c-0.28169,0 -0.56339,0.89538 -1.69014,1.79075c-1.12676,0.89537 -2.53344,2.2403 -3.09859,3.58148c-0.79924,1.89671 -1.10065,4.04595 -0.84507,8.95371c0.14133,2.71388 1.46204,5.76687 1.97182,7.16296c0.31615,0.86582 0.3642,1.47418 0.56339,1.79074c0.19918,0.31655 0.75871,1.10078 1.12675,1.34306c0.52049,0.34264 0.84507,0.44769 1.40845,0.44769c0.28169,0 0.56339,0 0.84507,0c0.28169,0 0.99575,-0.13913 1.40845,-0.89537c0.58365,-1.0695 1.01672,-3.04314 1.40845,-5.37223c0.51438,-3.05823 0.84506,-6.71529 0.84506,-7.16296c0,-0.89537 0.28169,-0.89537 0.56339,-1.34306c0,0 0.28168,-0.44769 0,-0.44769c-0.28169,0 -0.56339,0.4477 -1.40845,0.89538c-0.84507,0.44769 -1.09255,1.56396 -1.97183,1.79074c-0.27805,0.07171 -0.28169,0.44769 -0.56338,0.44769l-0.56338,0l-0.28169,0.44768l0,0" id="svg_9" fill-opacity="0" stroke-dasharray="—" stroke-width="4" stroke="#ffffff" fill="none"/>
 </g>
</svg>